<svg width="31" height="31" viewBox="0 0 31 31" fill="none" xmlns="http://www.w3.org/2000/svg">
<path d="M29.0013 19.3712C27.6169 17.9868 25.745 17.2771 23.8072 17.3871L21.9205 15.5004L29.9348 7.48609C30.6186 6.80226 30.9953 5.89028 30.9953 4.91811C30.9953 3.94588 30.6186 3.0339 29.9348 2.35012L28.6508 1.06613C27.967 0.382233 27.055 0.00568103 26.0828 0.00568103C25.1106 0.00568103 24.1986 0.382293 23.5148 1.06607L15.5005 9.0804L13.6137 7.19364C13.7237 5.25579 13.014 3.38393 11.6296 1.99955C9.53302 -0.09707 6.3518 -0.598836 3.71364 0.750852L2.60306 1.31904L6.81458 5.53056L5.53052 6.81461L1.31907 2.60309L0.750879 3.71368C-0.59887 6.35184 -0.0970432 9.533 1.99957 11.6296C3.38395 13.014 5.25551 13.7236 7.19367 13.6137L9.08042 15.5004L2.14761 22.4332L0.0102488 30.9906L8.56764 28.8533L15.5005 21.9204L17.3872 23.8072C17.2772 25.7451 17.9869 27.6169 19.3713 29.0013C20.6835 30.3135 22.4201 31.001 24.1829 31.0009C25.2367 31.0009 26.3002 30.755 27.2873 30.25L28.3978 29.6818L24.1863 25.4703L25.4704 24.1862L29.6819 28.3978L30.2501 27.2872C31.5998 24.6491 31.0979 21.4678 29.0013 19.3712ZM24.7987 2.35006C25.1396 2.00923 25.5957 1.82153 26.0828 1.82153C26.5699 1.82153 27.0259 2.00923 27.3668 2.35006L28.6508 3.63411C28.9916 3.97494 29.1793 4.43093 29.1793 4.91811C29.1793 5.40528 28.9916 5.86127 28.6508 6.2021L27.7337 7.11911L23.8817 3.26707L24.7987 2.35006ZM22.5978 4.55106L26.4498 8.4031L25.1658 9.68709L21.3138 5.83506L22.5978 4.55106ZM5.77859 1.92652C7.11296 1.64152 8.51175 1.91702 9.64522 2.69991L8.09857 4.2465L5.77859 1.92652ZM7.86497 11.7169L7.42563 11.7708C5.88764 11.9592 4.37768 11.4397 3.28357 10.3456C2.06321 9.1252 1.57949 7.40393 1.92655 5.77856L5.53052 9.38254L10.9293 3.98378C11.6181 4.98029 11.9216 6.19368 11.7707 7.42561L11.7169 7.86495L14.2164 10.3644L10.3644 14.2164L7.86497 11.7169ZM20.0298 7.11905L21.3138 8.40304L5.53549 24.1814L4.25149 22.8974L20.0298 7.11905ZM2.50328 28.4975L3.45934 24.6732L6.32758 27.5415L2.50328 28.4975ZM8.10353 26.7494L6.81948 25.4654L22.5978 9.68703L23.8819 10.9711L8.10353 26.7494ZM25.2223 29.0743C23.888 29.3593 22.4891 29.0838 21.3557 28.3009L22.9023 26.7542L25.2223 29.0743ZM29.0743 25.2222L25.4703 21.6183L20.0715 27.017C19.3828 26.0205 19.0792 24.8071 19.2301 23.5752L19.2839 23.1358L16.7844 20.6364L20.6365 16.7844L23.1359 19.2839L23.5753 19.23C25.1135 19.0418 26.6232 19.5611 27.7173 20.6552C28.9377 21.8756 29.4214 23.5969 29.0743 25.2222Z" fill="#DFDFDF"/>
</svg>
