<svg width="35" height="35" viewBox="0 0 35 35" fill="none" xmlns="http://www.w3.org/2000/svg">
<path d="M29.3395 24.9287C30.2993 24.0209 30.8999 22.7371 30.8999 21.3149C30.8999 18.5709 28.6675 16.3384 25.9234 16.3384C23.1794 16.3384 20.9469 18.5709 20.9469 21.3149C20.9469 22.7371 21.5476 24.0209 22.5073 24.9286C21.1665 25.4857 19.9897 26.3603 19.0712 27.4582C17.8783 25.6558 16.1394 24.2453 14.0919 23.4639C15.3223 22.416 16.1049 20.8571 16.1049 19.1181C16.1049 15.9703 13.544 13.4094 10.3962 13.4094C7.24838 13.4094 4.68748 15.9703 4.68748 19.1181C4.68748 20.8572 5.47009 22.416 6.7005 23.464C2.78733 24.9574 0 28.7494 0 33.1808C0 33.7448 0.457202 34.202 1.02115 34.202H33.834C34.398 34.202 34.8552 33.7448 34.8552 33.1808C34.8552 29.4652 32.5744 26.2727 29.3395 24.9287ZM20.7424 32.1597C20.651 31.2267 20.4355 30.3298 20.1131 29.4851C21.3376 27.5668 23.4838 26.2913 25.9234 26.2913C29.3754 26.2913 32.2425 28.8433 32.7374 32.1597H20.7424ZM2.10438 32.1597C2.60937 28.033 6.1354 24.8269 10.3963 24.8269C14.6572 24.8269 18.1832 28.0331 18.6882 32.1597H2.10438ZM6.72984 19.1181C6.72984 17.0965 8.37457 15.4517 10.3962 15.4517C12.4179 15.4517 14.0626 17.0965 14.0626 19.1181C14.0626 21.1398 12.4179 22.7845 10.3962 22.7845C8.37457 22.7846 6.72984 21.1399 6.72984 19.1181ZM22.9892 21.3149C22.9892 19.697 24.3055 18.3807 25.9234 18.3807C27.5414 18.3807 28.8576 19.697 28.8576 21.3149C28.8576 22.9328 27.5413 24.249 25.9234 24.249C24.3055 24.249 22.9892 22.9328 22.9892 21.3149Z" fill="#DFDFDF"/>
<path d="M9.89048 11.5835C10.0486 11.6749 10.225 11.7205 10.4014 11.7205C10.5774 11.7205 10.7535 11.6751 10.9113 11.5841L14.1281 9.73032L15.9338 9.72964V11.2885C15.9338 12.6203 17.0173 13.7039 18.3488 13.7039L23.144 13.7056L25.4136 15.0135C25.5713 15.1044 25.7473 15.1499 25.9234 15.1499C26.0998 15.1499 26.2763 15.1042 26.4343 15.0129C26.7501 14.8304 26.9445 14.4934 26.9445 14.1287V8.49983C26.9445 7.16798 25.861 6.08441 24.5292 6.08441H23.7814V2.94254C23.7814 1.32007 22.4614 0 20.839 0H12.3227C10.7003 0 9.38025 1.32 9.38025 2.94254V10.6993C9.38025 11.0641 9.57474 11.4011 9.89048 11.5835ZM11.4225 2.94254C11.4225 2.44613 11.8264 2.0423 12.3227 2.0423H20.839C21.3353 2.0423 21.7391 2.44613 21.7391 2.94254V6.78526C21.7391 7.28167 21.3353 7.6855 20.8386 7.6855L13.8543 7.68809C13.6755 7.68816 13.4998 7.7352 13.3448 7.82451L11.4225 8.93232V2.94254ZM24.9023 8.49983V12.3617L23.9273 11.7998C23.7724 11.7105 23.5967 11.6636 23.4179 11.6635L18.3493 11.6616C18.1435 11.6616 17.9761 11.4942 17.9761 11.2885V9.72889L20.8391 9.7278C21.9786 9.7278 22.9681 9.07631 23.4566 8.12671H24.5293C24.7349 8.12671 24.9023 8.29411 24.9023 8.49983Z" fill="#DFDFDF"/>
</svg>
